<svg width="18" height="26" viewBox="0 0 18 26" fill="none" xmlns="http://www.w3.org/2000/svg">
<path d="M8.99992 2.16667C12.5847 2.16667 15.4999 5.08192 15.4999 8.66667V17.3333C15.4999 20.9181 12.5847 23.8333 8.99992 23.8333C5.41517 23.8333 2.49992 20.9181 2.49992 17.3333V8.66667C2.49992 5.08192 5.41517 2.16667 8.99992 2.16667ZM8.99992 0C4.21375 0 0.333252 3.8805 0.333252 8.66667V17.3333C0.333252 22.1195 4.21375 26 8.99992 26C13.7861 26 17.6666 22.1195 17.6666 17.3333V8.66667C17.6666 3.8805 13.7861 0 8.99992 0ZM8.99992 9.75C8.10183 9.75 7.37492 9.022 7.37492 8.125C7.37492 7.228 8.10183 6.5 8.99992 6.5C9.898 6.5 10.6249 7.228 10.6249 8.125C10.6249 9.022 9.898 9.75 8.99992 9.75Z" fill="#f2f2f2"/>
</svg>
