<svg width="16" height="16" viewBox="0 0 16 16" fill="none" xmlns="http://www.w3.org/2000/svg">
<path d="M14.3554 4.7665C14.3655 4.90762 14.3655 5.04877 14.3655 5.18989C14.3655 9.49431 11.066 14.454 5.03555 14.454C3.17767 14.454 1.45179 13.9197 0 12.9923C0.26397 13.0226 0.517752 13.0326 0.791878 13.0326C2.32485 13.0326 3.73605 12.5185 4.86296 11.6415C3.42133 11.6113 2.2132 10.6738 1.79694 9.38344C2.00001 9.41366 2.20304 9.43383 2.41626 9.43383C2.71067 9.43383 3.00511 9.39349 3.2792 9.32296C1.77666 9.02052 0.649721 7.71005 0.649721 6.12739V6.08708C1.08625 6.32902 1.59391 6.48023 2.13195 6.50036C1.24869 5.91567 0.670034 4.9177 0.670034 3.78866C0.670034 3.18383 0.832441 2.6294 1.11672 2.14552C2.73095 4.12133 5.15736 5.41163 7.87816 5.55278C7.82741 5.31085 7.79694 5.05886 7.79694 4.80683C7.79694 3.01246 9.25888 1.55078 11.0761 1.55078C12.0203 1.55078 12.8731 1.94393 13.4721 2.57901C14.2132 2.43788 14.9238 2.16569 15.5533 1.79272C15.3096 2.54878 14.7919 3.18387 14.1117 3.58706C14.7716 3.51653 15.4112 3.33504 16 3.08305C15.5534 3.72819 14.995 4.30276 14.3554 4.7665Z" fill="#f858f1"/>
</svg>
